#tb 0: 1/15
#media_type 0: video
#codec_id 0: rawvideo
#dimensions 0: 664x382
#sar 0: 0/1
0,          0,          0,        1,   760944, 0x2feb1453
0,          1,          1,        1,   760944, 0x9677ebf8
0,          2,          2,        1,   760944, 0x83d2ed49
0,          3,          3,        1,   760944, 0x9ab6c63d
0,          4,          4,        1,   760944, 0x1820189c
0,          5,          5,        1,   760944, 0x4b94f521
